<svg width="18" height="18" viewBox="0 0 18 18" fill="none" xmlns="http://www.w3.org/2000/svg">
<g clip-path="url(#clip0_2582_55229)">
<path d="M12.6 9.675H9.675V12.6C9.675 12.969 9.369 13.275 9 13.275C8.631 13.275 8.325 12.969 8.325 12.6V9.675H5.4C5.031 9.675 4.725 9.369 4.725 9C4.725 8.631 5.031 8.325 5.4 8.325H8.325V5.4C8.325 5.031 8.631 4.725 9 4.725C9.369 4.725 9.675 5.031 9.675 5.4V8.325H12.6C12.969 8.325 13.275 8.631 13.275 9C13.275 9.369 12.969 9.675 12.6 9.675Z" fill="#026985"/>
</g>
<defs>
<clipPath id="clip0_2582_55229">
<rect width="18" height="18" rx="9" fill="white"/>
</clipPath>
</defs>
</svg>
