<svg width="26" height="26" viewBox="0 0 26 26" fill="none" xmlns="http://www.w3.org/2000/svg">
<path d="M17 13.75H9C8.59 13.75 8.25 13.41 8.25 13C8.25 12.59 8.59 12.25 9 12.25H17C17.41 12.25 17.75 12.59 17.75 13C17.75 13.41 17.41 13.75 17 13.75Z" fill="#2E9CB7"/>
<path d="M13 17.75C12.59 17.75 12.25 17.41 12.25 17V9C12.25 8.59 12.59 8.25 13 8.25C13.41 8.25 13.75 8.59 13.75 9V17C13.75 17.41 13.41 17.75 13 17.75Z" fill="#2E9CB7"/>
<path d="M16 23.75H10C4.57 23.75 2.25 21.43 2.25 16V10C2.25 4.57 4.57 2.25 10 2.25H16C21.43 2.25 23.75 4.57 23.75 10V16C23.75 21.43 21.43 23.75 16 23.75ZM10 3.75C5.39 3.75 3.75 5.39 3.75 10V16C3.75 20.61 5.39 22.25 10 22.25H16C20.61 22.25 22.25 20.61 22.25 16V10C22.25 5.39 20.61 3.75 16 3.75H10Z" fill="#2E9CB7"/>
</svg>
