<svg width="20" height="20" viewBox="0 0 20 20" fill="none" xmlns="http://www.w3.org/2000/svg">
<g opacity="0.4">
<path d="M10.0013 16.2702C6.54214 16.2702 3.73047 13.4585 3.73047 9.99935C3.73047 6.54018 6.54214 3.72852 10.0013 3.72852C13.4605 3.72852 16.2721 6.54018 16.2721 9.99935C16.2721 13.4585 13.4605 16.2702 10.0013 16.2702ZM10.0013 4.60352C7.0263 4.60352 4.60547 7.02435 4.60547 9.99935C4.60547 12.9743 7.0263 15.3952 10.0013 15.3952C12.9763 15.3952 15.3971 12.9743 15.3971 9.99935C15.3971 7.02435 12.9763 4.60352 10.0013 4.60352Z" fill="#363636"/>
<path d="M10 11.0202C9.76083 11.0202 9.5625 10.8218 9.5625 10.5827V7.66602C9.5625 7.42685 9.76083 7.22852 10 7.22852C10.2392 7.22852 10.4375 7.42685 10.4375 7.66602V10.5827C10.4375 10.8218 10.2392 11.0202 10 11.0202Z" fill="#363636" stroke="#363636" stroke-width="0.4"/>
<path d="M9.9974 13.6852C9.92156 13.6852 9.84573 13.6677 9.77573 13.6386C9.70573 13.6094 9.64156 13.5686 9.58323 13.5161C9.53073 13.4577 9.4899 13.3994 9.46073 13.3236C9.43156 13.2536 9.41406 13.1777 9.41406 13.1019C9.41406 13.0261 9.43156 12.9502 9.46073 12.8802C9.4899 12.8102 9.53073 12.7461 9.58323 12.6877C9.64156 12.6352 9.70573 12.5944 9.77573 12.5652C9.91573 12.5069 10.0791 12.5069 10.2191 12.5652C10.2891 12.5944 10.3532 12.6352 10.4116 12.6877C10.4641 12.7461 10.5049 12.8102 10.5341 12.8802C10.5632 12.9502 10.5807 13.0261 10.5807 13.1019C10.5807 13.1777 10.5632 13.2536 10.5341 13.3236C10.5049 13.3994 10.4641 13.4577 10.4116 13.5161C10.3532 13.5686 10.2891 13.6094 10.2191 13.6386C10.1491 13.6677 10.0732 13.6852 9.9974 13.6852Z" fill="#363636" stroke="#363636" stroke-width="0.4"/>
</g>
</svg>
