<svg width="30" height="30" viewBox="0 0 30 30" fill="none" xmlns="http://www.w3.org/2000/svg">
<path d="M12.4858 28.4373C12.2358 28.4373 12.0358 28.3873 11.8858 28.3248C11.3858 28.1373 10.5358 27.5248 10.5358 25.5873V17.5248H7.61077C5.93577 17.5248 5.33577 16.7373 5.12327 16.2748C4.91077 15.7998 4.72327 14.8373 5.82327 13.5748L15.2858 2.82479C16.5608 1.37479 17.5983 1.47479 18.0983 1.66229C18.5983 1.84979 19.4483 2.46229 19.4483 4.39979V12.4623H22.3733C24.0483 12.4623 24.6483 13.2498 24.8608 13.7123C25.0733 14.1873 25.2608 15.1498 24.1608 16.4123L14.6983 27.1623C13.8108 28.1748 13.0358 28.4373 12.4858 28.4373ZM17.4108 3.42479C17.3733 3.47479 17.1108 3.59979 16.6983 4.07479L7.23577 14.8248C6.88577 15.2248 6.83577 15.4748 6.83577 15.5248C6.86077 15.5373 7.08577 15.6623 7.61077 15.6623H11.4733C11.9858 15.6623 12.4108 16.0873 12.4108 16.5998V25.5998C12.4108 26.2248 12.5233 26.4998 12.5733 26.5748C12.6108 26.5248 12.8733 26.3998 13.2858 25.9248L22.7483 15.1748C23.0983 14.7748 23.1483 14.5248 23.1483 14.4748C23.1233 14.4623 22.8983 14.3373 22.3733 14.3373H18.5108C17.9983 14.3373 17.5733 13.9123 17.5733 13.3998V4.39979C17.5858 3.77479 17.4608 3.51229 17.4108 3.42479Z" fill="white"/>
</svg>
