<svg width="50" height="51" viewBox="0 0 50 51" fill="none" xmlns="http://www.w3.org/2000/svg">
<path d="M18.7526 22.8958C15.5859 22.8958 13.0234 20.3333 13.0234 17.1667C13.0234 14 15.5859 11.4375 18.7526 11.4375C21.9193 11.4375 24.4818 14 24.4818 17.1667C24.4818 20.3333 21.9193 22.8958 18.7526 22.8958ZM18.7526 14.5625C17.3151 14.5625 16.1484 15.7292 16.1484 17.1667C16.1484 18.6042 17.3151 19.7708 18.7526 19.7708C20.1901 19.7708 21.3568 18.6042 21.3568 17.1667C21.3568 15.7292 20.1901 14.5625 18.7526 14.5625Z" fill="black"/>
<path d="M31.2474 47.8962H18.7474C7.4349 47.8962 2.60156 43.0628 2.60156 31.7503V19.2503C2.60156 7.93783 7.4349 3.10449 18.7474 3.10449H27.0807C27.9349 3.10449 28.6432 3.81283 28.6432 4.66699C28.6432 5.52116 27.9349 6.22949 27.0807 6.22949H18.7474C9.14323 6.22949 5.72656 9.64616 5.72656 19.2503V31.7503C5.72656 41.3545 9.14323 44.7712 18.7474 44.7712H31.2474C40.8516 44.7712 44.2682 41.3545 44.2682 31.7503V21.3337C44.2682 20.4795 44.9766 19.7712 45.8307 19.7712C46.6849 19.7712 47.3932 20.4795 47.3932 21.3337V31.7503C47.3932 43.0628 42.5599 47.8962 31.2474 47.8962Z" fill="black"/>
<path d="M44.2708 12.4795H32.8125C31.9583 12.4795 31.25 11.7712 31.25 10.917C31.25 10.0628 31.9583 9.35449 32.8125 9.35449H44.2708C45.125 9.35449 45.8333 10.0628 45.8333 10.917C45.8333 11.7712 45.125 12.4795 44.2708 12.4795Z" fill="black"/>
<path d="M38.5391 18.2083C37.6849 18.2083 36.9766 17.5 36.9766 16.6458V5.1875C36.9766 4.33333 37.6849 3.625 38.5391 3.625C39.3932 3.625 40.1016 4.33333 40.1016 5.1875V16.6458C40.1016 17.5 39.3932 18.2083 38.5391 18.2083Z" fill="black"/>
<path d="M5.56498 41.542C5.06498 41.542 4.56498 41.292 4.27332 40.8545C3.79415 40.1462 3.98165 39.167 4.68998 38.6878L14.9608 31.792C17.2108 30.292 20.315 30.4587 22.3566 32.1878L23.0442 32.792C24.0858 33.6878 25.8566 33.6878 26.8775 32.792L35.5441 25.3545C37.7733 23.4587 41.2317 23.4587 43.4608 25.3545L46.8567 28.2712C47.5025 28.8337 47.5858 29.8128 47.0233 30.4795C46.4608 31.1253 45.4817 31.2087 44.815 30.6462L41.4192 27.7295C40.3775 26.8337 38.6067 26.8337 37.5858 27.7295L28.9192 35.167C26.7108 37.0628 23.2316 37.0628 21.0025 35.167L20.315 34.5628C19.3567 33.7503 17.7733 33.667 16.7108 34.3962L6.46082 41.292C6.16915 41.4587 5.85665 41.542 5.56498 41.542Z" fill="black"/>
</svg>
