<svg width="30" height="30" viewBox="0 0 30 30" fill="none" xmlns="http://www.w3.org/2000/svg">
<path d="M11.25 13.4375C9.35 13.4375 7.8125 11.9 7.8125 10C7.8125 8.1 9.35 6.5625 11.25 6.5625C13.15 6.5625 14.6875 8.1 14.6875 10C14.6875 11.9 13.15 13.4375 11.25 13.4375ZM11.25 8.4375C10.3875 8.4375 9.6875 9.1375 9.6875 10C9.6875 10.8625 10.3875 11.5625 11.25 11.5625C12.1125 11.5625 12.8125 10.8625 12.8125 10C12.8125 9.1375 12.1125 8.4375 11.25 8.4375Z" fill="white"/>
<path d="M18.75 28.4375H11.25C4.4625 28.4375 1.5625 25.5375 1.5625 18.75V11.25C1.5625 4.4625 4.4625 1.5625 11.25 1.5625H16.25C16.7625 1.5625 17.1875 1.9875 17.1875 2.5C17.1875 3.0125 16.7625 3.4375 16.25 3.4375H11.25C5.4875 3.4375 3.4375 5.4875 3.4375 11.25V18.75C3.4375 24.5125 5.4875 26.5625 11.25 26.5625H18.75C24.5125 26.5625 26.5625 24.5125 26.5625 18.75V12.5C26.5625 11.9875 26.9875 11.5625 27.5 11.5625C28.0125 11.5625 28.4375 11.9875 28.4375 12.5V18.75C28.4375 25.5375 25.5375 28.4375 18.75 28.4375Z" fill="white"/>
<path d="M3.34055 24.6252C3.04055 24.6252 2.74055 24.4752 2.56555 24.2127C2.27805 23.7877 2.39055 23.2002 2.81555 22.9127L8.97805 18.7752C10.3281 17.8752 12.1906 17.9752 13.4156 19.0127L13.8281 19.3752C14.4531 19.9127 15.5156 19.9127 16.1281 19.3752L21.3281 14.9127C22.6531 13.7752 24.7406 13.7752 26.0781 14.9127L28.1156 16.6627C28.5031 17.0002 28.5531 17.5877 28.2156 17.9877C27.8781 18.3752 27.2906 18.4252 26.8906 18.0877L24.8531 16.3377C24.2281 15.8002 23.1656 15.8002 22.5531 16.3377L17.3531 20.8002C16.0281 21.9377 13.9406 21.9377 12.6031 20.8002L12.1906 20.4377C11.6156 19.9502 10.6656 19.9002 10.0281 20.3377L3.87805 24.4752C3.70305 24.5752 3.51555 24.6252 3.34055 24.6252Z" fill="white"/>
<path d="M25.0336 1.00933C25.0014 1.01519 24.9017 1.0357 24.8138 1.05329C24.7259 1.07087 24.5413 1.13828 24.4035 1.20275L24.1544 1.31998L21.2355 4.23893C18.0645 7.41285 18.2227 7.23994 18.0674 7.7323C18.0059 7.93744 18 7.99899 18 8.67011C18 9.48191 18.0147 9.57276 18.1964 9.95961C18.3634 10.3084 18.6916 10.6366 19.0433 10.8036C19.4272 10.9853 19.521 11 20.3299 11C21.001 11 21.0626 10.9941 21.2677 10.9326C21.7601 10.7773 21.5871 10.9355 24.7581 7.76453C27.9321 4.59061 27.7738 4.76352 27.9233 4.2741C28.017 3.96931 28.017 3.55315 27.9233 3.24836C27.7914 2.81462 27.7298 2.73256 27.0001 1.9999C26.2733 1.27602 26.1854 1.20861 25.7692 1.08259C25.5758 1.02398 25.1538 0.980021 25.0336 1.00933ZM25.5025 2.31055C25.5758 2.34572 25.8278 2.57431 26.1502 2.90254C26.6953 3.45644 26.7481 3.53264 26.7481 3.76123C26.7481 3.96931 26.6836 4.07775 26.3554 4.41477L26.033 4.74594L25.145 3.85794L24.257 2.96995L24.5589 2.66809C24.723 2.50104 24.9105 2.33692 24.975 2.30762C25.1303 2.23435 25.3501 2.23728 25.5025 2.31055ZM23.1082 7.66196C21.3527 9.41157 21.0596 9.68999 20.9571 9.71929C20.7929 9.76619 19.8317 9.76619 19.6734 9.71929C19.5181 9.6724 19.3188 9.47312 19.2778 9.32658C19.2338 9.17126 19.2367 8.19534 19.2807 8.04295C19.31 7.94038 19.5884 7.64731 21.338 5.89183L23.3631 3.86381L24.2482 4.74887L25.1362 5.63686L23.1082 7.66196Z" fill="white"/>
</svg>
