<svg width="15" height="14" viewBox="0 0 15 14" fill="none" xmlns="http://www.w3.org/2000/svg">
<path d="M9.2474 13.2712H5.7474C2.5799 13.2712 1.22656 11.9178 1.22656 8.75033V5.25033C1.22656 2.08283 2.5799 0.729492 5.7474 0.729492H9.2474C12.4149 0.729492 13.7682 2.08283 13.7682 5.25033V8.75033C13.7682 11.9178 12.4149 13.2712 9.2474 13.2712ZM5.7474 1.60449C3.05823 1.60449 2.10156 2.56116 2.10156 5.25033V8.75033C2.10156 11.4395 3.05823 12.3962 5.7474 12.3962H9.2474C11.9366 12.3962 12.8932 11.4395 12.8932 8.75033V5.25033C12.8932 2.56116 11.9366 1.60449 9.2474 1.60449H5.7474Z" fill="#363636"/>
<path d="M5.7526 6.27083C4.86594 6.27083 4.14844 5.55333 4.14844 4.66667C4.14844 3.78 4.86594 3.0625 5.7526 3.0625C6.63927 3.0625 7.35677 3.78 7.35677 4.66667C7.35677 5.55333 6.63927 6.27083 5.7526 6.27083ZM5.7526 3.9375C5.3501 3.9375 5.02344 4.26417 5.02344 4.66667C5.02344 5.06917 5.3501 5.39583 5.7526 5.39583C6.1551 5.39583 6.48177 5.06917 6.48177 4.66667C6.48177 4.26417 6.1551 3.9375 5.7526 3.9375Z" fill="#363636"/>
<path d="M2.0607 11.4921C1.9207 11.4921 1.7807 11.4221 1.69904 11.2996C1.56487 11.1013 1.61737 10.8271 1.82154 10.693L4.69737 8.76215C5.32737 8.33632 6.19654 8.38881 6.7682 8.87298L6.9607 9.04215C7.25237 9.29298 7.7482 9.29298 8.03404 9.04215L10.4607 6.95965C11.079 6.42882 12.0532 6.42882 12.6774 6.95965L13.6282 7.77631C13.809 7.93381 13.8324 8.20798 13.6749 8.39465C13.5174 8.57548 13.2432 8.59882 13.0565 8.44132L12.1057 7.62465C11.814 7.37381 11.3182 7.37381 11.0265 7.62465L8.59987 9.70715C7.98154 10.238 7.00737 10.238 6.3832 9.70715L6.1907 9.53798C5.92237 9.31048 5.47904 9.28715 5.18154 9.49132L2.3057 11.4221C2.22987 11.4688 2.14237 11.4921 2.0607 11.4921Z" fill="#363636"/>
</svg>
