<svg width="13" height="13" viewBox="0 0 13 13" fill="none" xmlns="http://www.w3.org/2000/svg">
<path d="M6.45573 12.3231C3.24906 12.3231 0.632812 9.71225 0.632812 6.50016C0.632812 3.28808 3.24906 0.677246 6.45573 0.677246C9.6624 0.677246 12.2786 3.28808 12.2786 6.50016C12.2786 9.71225 9.66781 12.3231 6.45573 12.3231ZM6.45573 1.48975C3.69323 1.48975 1.44531 3.73766 1.44531 6.50016C1.44531 9.26266 3.69323 11.5106 6.45573 11.5106C9.21823 11.5106 11.4661 9.26266 11.4661 6.50016C11.4661 3.73766 9.21823 1.48975 6.45573 1.48975Z" fill="#363636"/>
<path d="M8.6224 6.90625H4.28906C4.06698 6.90625 3.88281 6.72208 3.88281 6.5C3.88281 6.27792 4.06698 6.09375 4.28906 6.09375H8.6224C8.84448 6.09375 9.02865 6.27792 9.02865 6.5C9.02865 6.72208 8.8499 6.90625 8.6224 6.90625Z" fill="#363636"/>
</svg>
