<svg width="18" height="17" viewBox="0 0 18 17" fill="none" xmlns="http://www.w3.org/2000/svg">
<g filter="url(#filter0_d_2961_14617)">
<rect x="2.5" y="2" width="13" height="13" rx="6.5" fill="#B7FBBA" shape-rendering="crispEdges"/>
<rect x="2.75" y="2.25" width="12.5" height="12.5" rx="6.25" stroke="#5BE361" stroke-width="0.5" shape-rendering="crispEdges"/>
<path d="M8.03545 11C7.87536 11 7.72327 10.9368 7.61121 10.8262L5.6741 8.91387C5.44197 8.68471 5.44197 8.30541 5.6741 8.07625C5.90623 7.8471 6.29045 7.8471 6.52258 8.07625L8.03545 9.56974L11.4774 6.17187C11.7095 5.94271 12.0938 5.94271 12.3259 6.17187C12.558 6.40103 12.558 6.78032 12.3259 7.00948L8.45969 10.8262C8.34763 10.9368 8.19554 11 8.03545 11Z" fill="#002702"/>
</g>
<defs>
<filter id="filter0_d_2961_14617" x="0.5" y="0" width="17" height="17" filterUnits="userSpaceOnUse" color-interpolation-filters="sRGB">
<feFlood flood-opacity="0" result="BackgroundImageFix"/>
<feColorMatrix in="SourceAlpha" type="matrix" values="0 0 0 0 0 0 0 0 0 0 0 0 0 0 0 0 0 0 127 0" result="hardAlpha"/>
<feOffset/>
<feGaussianBlur stdDeviation="1"/>
<feComposite in2="hardAlpha" operator="out"/>
<feColorMatrix type="matrix" values="0 0 0 0 0.358717 0 0 0 0 0.892074 0 0 0 0 0.382247 0 0 0 1 0"/>
<feBlend mode="normal" in2="BackgroundImageFix" result="effect1_dropShadow_2961_14617"/>
<feBlend mode="normal" in="SourceGraphic" in2="effect1_dropShadow_2961_14617" result="shape"/>
</filter>
</defs>
</svg>
