<svg width="25" height="24" viewBox="0 0 25 24" fill="none" xmlns="http://www.w3.org/2000/svg">
<path d="M18.1172 9.62012H12.8672C12.4572 9.62012 12.1172 9.28012 12.1172 8.87012C12.1172 8.46012 12.4572 8.12012 12.8672 8.12012H18.1172C18.5272 8.12012 18.8672 8.46012 18.8672 8.87012C18.8672 9.28012 18.5372 9.62012 18.1172 9.62012Z" fill="#363636"/>
<path d="M7.6225 10.3798C7.4325 10.3798 7.2425 10.3098 7.0925 10.1598L6.3425 9.40982C6.0525 9.11982 6.0525 8.63982 6.3425 8.34982C6.6325 8.05982 7.1125 8.05982 7.4025 8.34982L7.6225 8.56982L9.3425 6.84982C9.6325 6.55982 10.1125 6.55982 10.4025 6.84982C10.6925 7.13982 10.6925 7.61982 10.4025 7.90982L8.1525 10.1598C8.0125 10.2998 7.8225 10.3798 7.6225 10.3798Z" fill="#363636"/>
<path d="M18.1172 16.6201H12.8672C12.4572 16.6201 12.1172 16.2801 12.1172 15.8701C12.1172 15.4601 12.4572 15.1201 12.8672 15.1201H18.1172C18.5272 15.1201 18.8672 15.4601 18.8672 15.8701C18.8672 16.2801 18.5372 16.6201 18.1172 16.6201Z" fill="#363636"/>
<path d="M7.6225 17.3798C7.4325 17.3798 7.2425 17.3098 7.0925 17.1598L6.3425 16.4098C6.0525 16.1198 6.0525 15.6398 6.3425 15.3498C6.6325 15.0598 7.1125 15.0598 7.4025 15.3498L7.6225 15.5698L9.3425 13.8498C9.6325 13.5598 10.1125 13.5598 10.4025 13.8498C10.6925 14.1398 10.6925 14.6198 10.4025 14.9098L8.1525 17.1598C8.0125 17.2998 7.8225 17.3798 7.6225 17.3798Z" fill="#363636"/>
<path d="M15.5 22.75H9.5C4.07 22.75 1.75 20.43 1.75 15V9C1.75 3.57 4.07 1.25 9.5 1.25H15.5C20.93 1.25 23.25 3.57 23.25 9V15C23.25 20.43 20.93 22.75 15.5 22.75ZM9.5 2.75C4.89 2.75 3.25 4.39 3.25 9V15C3.25 19.61 4.89 21.25 9.5 21.25H15.5C20.11 21.25 21.75 19.61 21.75 15V9C21.75 4.39 20.11 2.75 15.5 2.75H9.5Z" fill="#363636"/>
</svg>
