<svg width="13" height="13" viewBox="0 0 13 13" fill="none" xmlns="http://www.w3.org/2000/svg">
<path d="M6.5026 12.3231C3.29052 12.3231 0.679688 9.71225 0.679688 6.50016C0.679688 3.28808 3.29052 0.677246 6.5026 0.677246C9.71469 0.677246 12.3255 3.28808 12.3255 6.50016C12.3255 9.71225 9.71469 12.3231 6.5026 12.3231ZM6.5026 1.48975C3.7401 1.48975 1.49219 3.73766 1.49219 6.50016C1.49219 9.26266 3.7401 11.5106 6.5026 11.5106C9.2651 11.5106 11.513 9.26266 11.513 6.50016C11.513 3.73766 9.2651 1.48975 6.5026 1.48975Z" fill="black"/>
<path d="M5.73469 8.43904C5.62635 8.43904 5.52344 8.3957 5.4476 8.31987L3.91469 6.78695C3.7576 6.62987 3.7576 6.36987 3.91469 6.21279C4.07177 6.0557 4.33177 6.0557 4.48885 6.21279L5.73469 7.45862L8.51885 4.67445C8.67594 4.51737 8.93594 4.51737 9.09302 4.67445C9.2501 4.83154 9.2501 5.09154 9.09302 5.24862L6.02177 8.31987C5.94594 8.3957 5.84302 8.43904 5.73469 8.43904Z" fill="black"/>
</svg>
